<svg xmlns="http://www.w3.org/2000/svg" viewBox="0 0 160 90" preserveAspectRatio='none'>
    <path fill="#ff5850" d="M 158 29 L 158 4 L 156 2 L 50 2 L 52 3 L 155 3 L 157 5 L 157 30 M 48 2 L 46 2 L 47 3 L 49 3 M 44 2 L 42 2 L 43 3 L 45 3 M 40 2 L 19 2 L 18 0 L 4 0 L 0 4 L 0 18 L 2 19 L 2 58 L 3 57 L 3 5 L 5 3 L 41 3 M 2 60 L 2 86 L 4 88 L 136 88 L 135 87 L 5 87 L 3 85 L 3 59 M 138 88 L 142 88 L 143 90 L 156 90 L 160 86 L 160 72 L 158 71 L 158 35 L 157 36 L 157 85 L 155 87 L 137 87 M 158 33 L 158 31 L 157 32 L 157 34"/>
</svg>
